<?xml version="1.0" encoding="UTF-8" standalone="no"?>
<svg width="32px" height="32px" viewBox="0 0 32 32" version="1.1" xmlns="http://www.w3.org/2000/svg" xmlns:xlink="http://www.w3.org/1999/xlink" xmlns:sketch="http://www.bohemiancoding.com/sketch/ns">
    <!-- Generator: Sketch 3.4.2 (15855) - http://www.bohemiancoding.com/sketch -->
    <title>facebook</title>
    <desc>Created with Sketch.</desc>
    <defs></defs>
    <g id="Page-1" stroke="none" stroke-width="1" fill="none" fill-rule="evenodd" sketch:type="MSPage">
        <g id="facebook" sketch:type="MSArtboardGroup" fill="#000000">
            <path d="M17.3676432,29.9462424 L4.43614721,29.9462424 C3.61301456,29.9462424 2.946,29.2789936 2.946,28.4560952 L2.946,4.43623348 C2.946,3.61310082 3.61301456,2.9460082 4.43614721,2.9460082 L28.4559308,2.9460082 C29.2786732,2.9460082 29.946,3.61310082 29.946,4.43623348 L29.946,28.4560952 C29.946,29.2789936 29.2786732,29.9462424 28.4559308,29.9462424 L21.5755722,29.9462424 L21.5755722,19.5684482 L25.0852631,19.5684482 L25.6106786,15.4935317 L21.5755722,15.4935317 L21.5755722,12.8919798 C21.5755722,11.7121953 21.903108,10.9081872 23.5949598,10.9081872 L25.7528241,10.9071724 L25.7528241,7.26267352 C25.3795457,7.21310603 24.0986748,7.10210606 22.6085276,7.10210606 C19.4974062,7.10210606 17.3676432,9.00104851 17.3676432,12.4884926 L17.3676432,15.4935317 L13.8489755,15.4935317 L13.8489755,19.5684482 L17.3676432,19.5684482 L17.3676432,29.9462424 Z" id="Fill-74" sketch:type="MSShapeGroup"></path>
        </g>
    </g>
</svg>
